<svg xmlns="http://www.w3.org/2000/svg" xmlns:xlink="http://www.w3.org/1999/xlink" width="1400" zoomAndPan="magnify" viewBox="0 0 1050 1049.999947" height="1400" preserveAspectRatio="xMidYMid meet" version="1.0"><defs><g/><clipPath id="id1"><path d="M 1 1.15625 L 1049.851562 1.15625 L 1049.851562 1049.65625 L 1 1049.65625 Z M 1 1.15625 " clip-rule="nonzero"/></clipPath><clipPath id="id2"><path d="M 460 336 L 1049.851562 336 L 1049.851562 655.347656 L 460 655.347656 Z M 460 336 " clip-rule="nonzero"/></clipPath><clipPath id="id3"><path d="M 1.230469 472.222656 L 1050 472.222656 L 1050 1049.65625 L 1.230469 1049.65625 Z M 1.230469 472.222656 " clip-rule="nonzero"/></clipPath><clipPath id="id4"><path d="M 180 603 L 783 603 L 783 1049.65625 L 180 1049.65625 Z M 180 603 " clip-rule="nonzero"/></clipPath><clipPath id="id5"><path d="M 240 622 L 742 622 L 742 1049.65625 L 240 1049.65625 Z M 240 622 " clip-rule="nonzero"/></clipPath><clipPath id="id6"><path d="M 278 625 L 697 625 L 697 1049.65625 L 278 1049.65625 Z M 278 625 " clip-rule="nonzero"/></clipPath></defs><g clip-path="url(#id1)"><path fill="rgb(18.818665%, 29.798889%, 53.729248%)" d="M 1050.09375 525.613281 C 1050.09375 534.191406 1049.886719 542.765625 1049.464844 551.339844 C 1049.042969 559.90625 1048.414062 568.464844 1047.570312 577 C 1046.730469 585.539062 1045.679688 594.050781 1044.417969 602.542969 C 1043.160156 611.027344 1041.695312 619.480469 1040.019531 627.894531 C 1038.34375 636.3125 1036.460938 644.679688 1034.378906 653.003906 C 1032.289062 661.328125 1030.003906 669.59375 1027.511719 677.804688 C 1025.019531 686.015625 1022.328125 694.160156 1019.433594 702.238281 C 1016.542969 710.316406 1013.457031 718.320312 1010.171875 726.25 C 1006.886719 734.175781 1003.410156 742.015625 999.738281 749.773438 C 996.066406 757.53125 992.207031 765.191406 988.160156 772.761719 C 984.117188 780.324219 979.886719 787.789062 975.472656 795.152344 C 971.058594 802.507812 966.46875 809.753906 961.699219 816.890625 C 956.929688 824.023438 951.992188 831.039062 946.875 837.933594 C 941.761719 844.820312 936.484375 851.585938 931.039062 858.21875 C 925.59375 864.851562 919.984375 871.34375 914.21875 877.703125 C 908.457031 884.058594 902.539062 890.273438 896.46875 896.339844 C 890.398438 902.40625 884.183594 908.320312 877.824219 914.082031 C 871.464844 919.84375 864.96875 925.449219 858.332031 930.894531 C 851.695312 936.335938 844.929688 941.613281 838.035156 946.722656 C 831.140625 951.835938 824.121094 956.773438 816.984375 961.542969 C 809.847656 966.308594 802.597656 970.898438 795.238281 975.308594 C 787.871094 979.71875 780.40625 983.949219 772.835938 987.996094 C 765.265625 992.039062 757.597656 995.894531 749.839844 999.566406 C 742.082031 1003.234375 734.234375 1006.710938 726.304688 1009.992188 C 718.371094 1013.277344 710.367188 1016.359375 702.285156 1019.253906 C 694.199219 1022.144531 686.054688 1024.835938 677.839844 1027.324219 C 669.625 1029.816406 661.355469 1032.101562 653.027344 1034.1875 C 644.703125 1036.273438 636.328125 1038.152344 627.910156 1039.828125 C 619.492188 1041.5 611.03125 1042.96875 602.542969 1044.226562 C 594.050781 1045.484375 585.535156 1046.535156 576.992188 1047.375 C 568.449219 1048.214844 559.890625 1048.847656 551.320312 1049.269531 C 542.742188 1049.691406 534.164062 1049.898438 525.582031 1049.898438 C 516.996094 1049.898438 508.417969 1049.691406 499.84375 1049.269531 C 491.273438 1048.847656 482.710938 1048.214844 474.171875 1047.375 C 465.625 1046.535156 457.109375 1045.484375 448.621094 1044.226562 C 440.125 1042.96875 431.671875 1041.5 423.253906 1039.828125 C 414.835938 1038.152344 406.460938 1036.273438 398.132812 1034.1875 C 389.804688 1032.101562 381.535156 1029.816406 373.320312 1027.324219 C 365.109375 1024.835938 356.957031 1022.144531 348.875 1019.253906 C 340.792969 1016.359375 332.789062 1013.277344 324.859375 1009.992188 C 316.925781 1006.710938 309.082031 1003.234375 301.320312 999.566406 C 293.558594 995.894531 285.894531 992.039062 278.324219 987.992188 C 270.753906 983.949219 263.289062 979.71875 255.925781 975.308594 C 248.5625 970.898438 241.3125 966.308594 234.175781 961.542969 C 227.039062 956.773438 220.023438 951.835938 213.128906 946.722656 C 206.230469 941.613281 199.464844 936.335938 192.832031 930.894531 C 186.195312 925.449219 179.695312 919.84375 173.335938 914.082031 C 166.976562 908.320312 160.761719 902.40625 154.691406 896.339844 C 148.621094 890.273438 142.703125 884.058594 136.9375 877.703125 C 131.175781 871.34375 125.570312 864.851562 120.125 858.21875 C 114.679688 851.585938 109.398438 844.820312 104.285156 837.933594 C 99.171875 831.039062 94.230469 824.023438 89.460938 816.890625 C 84.691406 809.753906 80.101562 802.507812 75.6875 795.152344 C 71.273438 787.789062 67.042969 780.324219 63 772.761719 C 58.949219 765.191406 55.09375 757.53125 51.425781 749.773438 C 47.753906 742.015625 44.277344 734.175781 40.992188 726.25 C 37.707031 718.320312 34.617188 710.316406 31.726562 702.238281 C 28.832031 694.160156 26.144531 686.015625 23.648438 677.804688 C 21.160156 669.59375 18.871094 661.328125 16.78125 653.003906 C 14.699219 644.679688 12.816406 636.3125 11.144531 627.894531 C 9.46875 619.480469 8.003906 611.027344 6.742188 602.542969 C 5.480469 594.050781 4.429688 585.539062 3.589844 577 C 2.75 568.464844 2.117188 559.90625 1.695312 551.339844 C 1.273438 542.765625 1.066406 534.191406 1.066406 525.613281 C 1.066406 517.03125 1.273438 508.457031 1.695312 499.886719 C 2.117188 491.316406 2.75 482.761719 3.589844 474.21875 C 4.429688 465.683594 5.480469 457.167969 6.742188 448.683594 C 8.003906 440.195312 9.46875 431.742188 11.144531 423.328125 C 12.816406 414.914062 14.699219 406.542969 16.78125 398.21875 C 18.871094 389.894531 21.160156 381.628906 23.648438 373.417969 C 26.144531 365.207031 28.832031 357.0625 31.726562 348.984375 C 34.617188 340.902344 37.707031 332.902344 40.992188 324.972656 C 44.277344 317.046875 47.753906 309.207031 51.425781 301.449219 C 55.09375 293.691406 58.949219 286.027344 63 278.464844 C 67.042969 270.894531 71.273438 263.433594 75.6875 256.074219 C 80.101562 248.710938 84.691406 241.464844 89.460938 234.332031 C 94.230469 227.199219 99.171875 220.1875 104.285156 213.292969 C 109.398438 206.398438 114.679688 199.636719 120.125 193.003906 C 125.570312 186.375 131.175781 179.875 136.9375 173.519531 C 142.703125 167.164062 148.621094 160.949219 154.691406 154.882812 C 160.761719 148.816406 166.976562 142.898438 173.335938 137.136719 C 179.695312 131.375 186.195312 125.773438 192.832031 120.332031 C 199.464844 114.886719 206.230469 109.609375 213.128906 104.496094 C 220.023438 99.386719 227.039062 94.449219 234.175781 89.679688 C 241.3125 84.914062 248.5625 80.324219 255.925781 75.914062 C 263.289062 71.5 270.753906 67.273438 278.324219 63.230469 C 285.894531 59.183594 293.558594 55.328125 301.320312 51.660156 C 309.082031 47.992188 316.925781 44.515625 324.859375 41.230469 C 332.789062 37.949219 340.792969 34.859375 348.875 31.96875 C 356.957031 29.078125 365.109375 26.390625 373.320312 23.898438 C 381.535156 21.40625 389.804688 19.117188 398.132812 17.03125 C 406.460938 14.949219 414.835938 13.070312 423.253906 11.394531 C 431.671875 9.722656 440.125 8.257812 448.621094 6.996094 C 457.109375 5.734375 465.625 4.6875 474.171875 3.84375 C 482.710938 3.003906 491.273438 2.375 499.84375 1.953125 C 508.417969 1.53125 516.996094 1.320312 525.582031 1.320312 C 534.164062 1.320312 542.742188 1.53125 551.320312 1.953125 C 559.890625 2.375 568.449219 3.003906 576.992188 3.84375 C 585.535156 4.6875 594.050781 5.734375 602.542969 6.996094 C 611.03125 8.257812 619.492188 9.722656 627.910156 11.394531 C 636.328125 13.070312 644.703125 14.949219 653.027344 17.03125 C 661.355469 19.117188 669.625 21.40625 677.839844 23.898438 C 686.054688 26.390625 694.199219 29.078125 702.285156 31.96875 C 710.367188 34.859375 718.371094 37.949219 726.304688 41.230469 C 734.234375 44.515625 742.082031 47.992188 749.839844 51.660156 C 757.597656 55.328125 765.265625 59.183594 772.835938 63.230469 C 780.40625 67.273438 787.871094 71.5 795.238281 75.914062 C 802.597656 80.324219 809.847656 84.914062 816.984375 89.679688 C 824.121094 94.449219 831.140625 99.386719 838.035156 104.496094 C 844.929688 109.609375 851.695312 114.886719 858.332031 120.332031 C 864.96875 125.773438 871.464844 131.375 877.824219 137.136719 C 884.183594 142.898438 890.398438 148.816406 896.46875 154.882812 C 902.539062 160.949219 908.457031 167.164062 914.21875 173.519531 C 919.984375 179.875 925.59375 186.375 931.039062 193.003906 C 936.484375 199.636719 941.761719 206.398438 946.875 213.292969 C 951.992188 220.1875 956.929688 227.199219 961.699219 234.332031 C 966.46875 241.464844 971.058594 248.710938 975.472656 256.074219 C 979.886719 263.433594 984.117188 270.894531 988.164062 278.464844 C 992.207031 286.027344 996.066406 293.691406 999.738281 301.449219 C 1003.410156 309.207031 1006.886719 317.046875 1010.171875 324.972656 C 1013.457031 332.902344 1016.542969 340.902344 1019.433594 348.984375 C 1022.328125 357.0625 1025.019531 365.207031 1027.511719 373.417969 C 1030.003906 381.628906 1032.289062 389.894531 1034.378906 398.21875 C 1036.460938 406.542969 1038.34375 414.914062 1040.019531 423.328125 C 1041.695312 431.742188 1043.160156 440.195312 1044.417969 448.683594 C 1045.679688 457.167969 1046.730469 465.683594 1047.570312 474.21875 C 1048.410156 482.761719 1049.042969 491.316406 1049.464844 499.886719 C 1049.886719 508.457031 1050.09375 517.03125 1050.09375 525.613281 Z M 1050.09375 525.613281 " fill-opacity="1" fill-rule="nonzero"/></g><path fill="rgb(100%, 100%, 100%)" d="M 950.621094 233.476562 L 947.777344 233.476562 C 947.246094 207.378906 917.476562 198.953125 905.265625 208.324219 C 903.496094 184.894531 883.964844 166.441406 860.074219 166.441406 C 848.066406 166.441406 837.167969 171.082031 829.070312 178.6875 C 820.230469 172.113281 809.292969 168.25 797.410156 168.25 C 772.488281 168.25 751.601562 185.386719 745.84375 208.527344 C 742.800781 207.871094 739.675781 207.5 736.425781 207.5 C 712.742188 207.5 693.582031 226.695312 693.582031 250.332031 C 693.582031 273.261719 711.632812 292.003906 734.328125 293.113281 L 734.328125 293.15625 L 950.621094 293.15625 C 967.109375 293.15625 980.472656 279.796875 980.472656 263.316406 C 980.472656 246.835938 967.148438 233.476562 950.621094 233.476562 Z M 950.621094 233.476562 " fill-opacity="1" fill-rule="nonzero"/><g clip-path="url(#id2)"><path fill="rgb(21.179199%, 33.729553%, 42.349243%)" d="M 1033.894531 655.164062 C 1044.257812 614.390625 1049.890625 571.726562 1050.054688 527.789062 C 984.46875 464.125 919.996094 399.347656 852.886719 337.285156 C 851.449219 335.929688 849.226562 335.929688 847.75 337.242188 C 829.246094 353.972656 543.015625 597.824219 460.773438 655.203125 L 1033.894531 655.203125 Z M 1033.894531 655.164062 " fill-opacity="1" fill-rule="nonzero"/></g><path fill="rgb(14.898682%, 24.308777%, 30.198669%)" d="M 900.300781 545.792969 C 857.164062 495.316406 813.992188 400.292969 850.75 336.296875 C 849.722656 336.175781 848.652344 336.460938 847.832031 337.203125 C 829.328125 353.929688 543.09375 597.785156 460.859375 655.164062 L 1033.976562 655.164062 C 1035.703125 648.339844 1037.265625 641.4375 1038.75 634.488281 C 985.375 618.789062 936.484375 588.167969 900.300781 545.792969 Z M 900.300781 545.792969 " fill-opacity="1" fill-rule="nonzero"/><path fill="rgb(21.179199%, 33.729553%, 42.349243%)" d="M 912.058594 666.09375 C 861.523438 614.554688 641.414062 377.894531 584.132812 312.171875 C 581.253906 308.839844 576.445312 308.0625 572.660156 310.28125 C 500.582031 351.835938 119.652344 637.695312 70.679688 666.09375 Z M 912.058594 666.09375 " fill-opacity="1" fill-rule="nonzero"/><path fill="rgb(14.898682%, 24.308777%, 30.198669%)" d="M 538.738281 573.453125 C 502.429688 483.648438 516.78125 382.292969 580.144531 309.5 C 577.722656 308.675781 575.007812 308.882812 572.660156 310.238281 C 500.582031 351.792969 119.652344 637.652344 70.679688 666.054688 L 599.265625 666.054688 C 573.648438 640.035156 552.964844 608.636719 538.738281 573.453125 Z M 538.738281 573.453125 " fill-opacity="1" fill-rule="nonzero"/><path fill="rgb(21.179199%, 33.729553%, 42.349243%)" d="M 482.734375 653.808594 C 380.675781 530.089844 278.207031 399.59375 245.433594 357.671875 C 239.265625 349.777344 228.207031 347.722656 219.570312 352.863281 C 184.332031 373.945312 96.011719 427.050781 47.488281 458.371094 C 32.519531 468.070312 17.550781 477.976562 2.421875 487.632812 C 1.515625 500.171875 1.066406 512.828125 1.066406 525.570312 C 1.066406 569.796875 6.574219 612.746094 16.894531 653.765625 L 482.734375 653.765625 Z M 482.734375 653.808594 " fill-opacity="1" fill-rule="nonzero"/><path fill="rgb(14.898682%, 24.308777%, 30.198669%)" d="M 259.785156 565.847656 C 238.113281 531.898438 223.023438 493.839844 218.667969 453.683594 C 214.964844 419.570312 217.84375 380.566406 237.992188 351.875 C 232.234375 349.246094 225.371094 349.410156 219.613281 352.863281 C 184.375 373.945312 96.046875 427.050781 47.53125 458.371094 C 32.5625 468.070312 17.59375 477.976562 2.460938 487.632812 C 1.558594 500.171875 1.105469 512.828125 1.105469 525.570312 C 1.105469 569.796875 6.617188 612.746094 16.9375 653.765625 L 335.117188 653.765625 C 306.417969 627.585938 280.59375 598.527344 259.785156 565.847656 Z M 259.785156 565.847656 " fill-opacity="1" fill-rule="nonzero"/><g clip-path="url(#id3)"><path fill="rgb(95.289612%, 58.039856%, 22.749329%)" d="M 953.21875 524.257812 C 869.625 519.855469 776.367188 519.941406 697.128906 549.738281 C 612.179688 581.714844 535.695312 639.957031 440.257812 628.53125 C 347.328125 617.351562 269.117188 561.25 188.652344 518.253906 C 130.875 487.390625 68.050781 476.617188 4.1875 472.835938 C 2.339844 490.675781 1.394531 508.761719 1.394531 527.09375 C 1.394531 816.652344 236.222656 1051.378906 525.910156 1051.378906 C 812.921875 1051.378906 1046.066406 820.925781 1050.300781 535.023438 C 1018.105469 529.351562 985.5 525.984375 953.21875 524.257812 Z M 953.21875 524.257812 " fill-opacity="1" fill-rule="nonzero"/></g><path fill="rgb(63.529968%, 34.899902%, 23.529053%)" d="M 114.304688 520.96875 C 190.707031 552 252.507812 604.074219 324.09375 643.285156 C 362.417969 664.289062 405.183594 682.332031 449.507812 683.277344 C 495.480469 684.261719 539.027344 666.464844 579.777344 647.066406 C 619.578125 628.117188 658.273438 608.554688 700.421875 595.195312 C 743.179688 581.632812 787.46875 573.164062 832.246094 570.121094 C 901.410156 565.398438 979.082031 556.355469 1046.890625 577.273438 C 1048.203125 563.339844 1049.027344 549.246094 1049.277344 534.984375 C 1017.078125 529.351562 984.46875 525.941406 952.191406 524.253906 C 868.59375 519.855469 775.335938 519.9375 696.101562 549.738281 C 611.148438 581.714844 534.667969 639.957031 439.230469 628.53125 C 346.300781 617.347656 268.09375 561.246094 187.621094 518.253906 C 129.851562 487.386719 67.019531 476.617188 3.164062 472.835938 C 2.382812 480.234375 1.84375 487.671875 1.394531 495.195312 C 39.511719 496.675781 77.957031 506.171875 114.304688 520.96875 Z M 114.304688 520.96875 " fill-opacity="1" fill-rule="nonzero"/><path fill="rgb(63.529968%, 34.899902%, 23.529053%)" d="M 111.179688 769.960938 C 159.125 808.019531 158.097656 817.597656 221.382812 883.109375 C 241.160156 903.578125 239.679688 857.464844 218.832031 837.652344 C 188.320312 808.71875 143.789062 748.132812 97.570312 713.445312 C 81.328125 701.238281 42.882812 679.414062 23.515625 681.425781 C 29.726562 701.609375 37.210938 721.253906 45.679688 740.324219 C 63.113281 739.214844 96.625 758.449219 111.179688 769.960938 Z M 111.179688 769.960938 " fill-opacity="1" fill-rule="nonzero"/><path fill="rgb(63.529968%, 34.899902%, 23.529053%)" d="M 659.339844 827.132812 C 707.492188 816.445312 733.480469 782.003906 769.210938 751.464844 C 843.101562 688.332031 937.511719 665.277344 1032.417969 660.917969 C 1035.539062 649.242188 1038.253906 637.40625 1040.554688 625.445312 C 972.671875 607.074219 894.957031 615.417969 832.617188 643.820312 C 771.308594 671.769531 731.835938 730.417969 675.132812 765.394531 C 642.480469 785.535156 607.121094 802.386719 568.878906 808.019531 C 553.910156 810.238281 539.640625 808.511719 524.839844 807.898438 C 566.082031 829.390625 612.421875 837.570312 659.339844 827.132812 Z M 659.339844 827.132812 " fill-opacity="1" fill-rule="nonzero"/><g clip-path="url(#id4)"><path fill="rgb(63.529968%, 34.899902%, 23.529053%)" d="M 761.933594 892.8125 C 744.539062 859.972656 715.878906 834.488281 675.046875 819.238281 C 633.84375 803.867188 589.152344 800.824219 545.15625 799.714844 C 530.761719 799.347656 514.933594 798.648438 504.484375 788.785156 C 494.371094 779.246094 492.523438 762.972656 497.867188 750.148438 C 511.847656 716.691406 563.039062 705.632812 590.464844 686.402344 C 626.074219 661.453125 599.144531 630.050781 573.855469 603.292969 C 531.707031 620.761719 488.246094 632.847656 439.929688 627.050781 C 417.644531 624.378906 396.257812 619.117188 375.453125 612.050781 C 397.496094 648.296875 380.347656 666.507812 357.195312 682.496094 C 307.730469 716.648438 195.191406 721.210938 181.414062 791.414062 C 173.929688 829.554688 198.027344 865.929688 227.507812 888.003906 C 260.445312 912.582031 302.960938 909.496094 337.007812 930.871094 C 373.109375 953.519531 382.980469 991.042969 377.921875 1028.859375 C 424.757812 1042.582031 474.304688 1049.941406 525.582031 1049.941406 C 618.917969 1049.941406 706.546875 1025.570312 782.492188 982.824219 C 782.371094 949.164062 775.667969 918.703125 761.933594 892.8125 Z M 761.933594 892.8125 " fill-opacity="1" fill-rule="nonzero"/></g><g clip-path="url(#id5)"><path fill="rgb(39.219666%, 55.288696%, 89.7995%)" d="M 733.152344 965.890625 C 709.632812 901.320312 646.757812 842.710938 576.8125 834.859375 C 536.890625 830.378906 502.757812 838.105469 466.78125 812.582031 C 457.9375 806.335938 449.714844 798.277344 446.757812 787.878906 C 438.40625 758.78125 461.1875 737.570312 483.390625 724.539062 C 557.488281 681.140625 527.761719 620.183594 516.863281 622.199219 C 485.820312 628.078125 463.121094 630.089844 439.886719 627.007812 C 439.886719 627.007812 446.671875 638.269531 454.113281 656.972656 C 462.339844 677.683594 440.792969 692.074219 421.632812 700.867188 C 373.726562 722.898438 315.175781 724.417969 272.777344 758.042969 C 250.164062 776 234.703125 806.210938 242.640625 833.992188 C 258.796875 890.550781 342.886719 886.566406 388.367188 895.773438 C 433.144531 904.851562 485.488281 926.308594 480.144531 980.972656 C 477.925781 1003.660156 468.421875 1025.117188 455.058594 1045.132812 C 478.128906 1048.214844 501.691406 1049.859375 525.621094 1049.859375 C 602.554688 1049.859375 675.582031 1033.296875 741.417969 1003.539062 C 740.429688 991.25 737.796875 978.671875 733.152344 965.890625 Z M 733.152344 965.890625 " fill-opacity="1" fill-rule="nonzero"/></g><g clip-path="url(#id6)"><path fill="rgb(54.899597%, 82.749939%, 96.469116%)" d="M 613.78125 881.21875 C 572.867188 860.671875 523.648438 863.753906 480.472656 849.820312 C 437.996094 836.089844 396.386719 805.019531 421.425781 760.671875 C 436.679688 733.625 488.203125 712.664062 504.855469 686.648438 C 518.921875 664.65625 519.207031 648.382812 497.621094 625.53125 C 484.996094 627.378906 473.644531 628.40625 462.832031 628.445312 C 468.015625 643.492188 470.6875 659.191406 468.386719 675.015625 C 463.488281 708.59375 424.140625 720.101562 394.78125 732.433594 C 366.164062 744.433594 349.382812 744.804688 315.460938 760.671875 C 286.265625 774.316406 269.449219 799.472656 284.703125 826.640625 C 301.851562 857.136719 331.949219 855.777344 362.953125 861.328125 C 395.605469 867.203125 430.757812 872.136719 459.175781 890.550781 C 515.628906 927.128906 517.066406 994.453125 489.851562 1048.710938 C 501.648438 1049.53125 513.613281 1049.941406 525.621094 1049.941406 C 585 1049.941406 642.03125 1040.035156 695.28125 1021.871094 C 702.679688 965.808594 663.78125 906.292969 613.78125 881.21875 Z M 613.78125 881.21875 " fill-opacity="1" fill-rule="nonzero"/></g><path fill="rgb(100%, 100%, 100%)" d="M 771.378906 123.613281 C 771.378906 102.855469 756.617188 85.554688 737.042969 81.609375 C 735.273438 58.179688 715.746094 39.726562 691.855469 39.726562 C 679.847656 39.726562 668.953125 44.371094 660.851562 51.972656 C 652.007812 45.398438 641.074219 41.535156 629.191406 41.535156 C 604.273438 41.535156 583.382812 58.671875 577.625 81.816406 C 574.585938 81.15625 571.457031 80.785156 568.210938 80.785156 C 544.527344 80.785156 525.363281 99.980469 525.363281 123.613281 C 525.363281 146.546875 543.414062 165.289062 566.113281 166.398438 L 566.113281 166.441406 L 732.316406 166.441406 L 732.316406 166.277344 C 754.191406 164.34375 771.378906 145.972656 771.378906 123.613281 Z M 771.378906 123.613281 " fill-opacity="0.4196" fill-rule="nonzero"/><path fill="rgb(100%, 100%, 100%)" d="M 480.667969 186.582031 C 480.667969 165.820312 465.902344 148.519531 446.335938 144.574219 C 444.566406 121.148438 425.035156 102.691406 401.144531 102.691406 C 389.132812 102.691406 378.238281 107.335938 370.140625 114.941406 C 361.300781 108.363281 350.359375 104.5 338.476562 104.5 C 313.558594 104.5 292.667969 121.640625 286.914062 144.78125 C 283.871094 144.121094 280.746094 143.75 277.5 143.75 C 253.8125 143.75 234.652344 162.949219 234.652344 186.582031 C 234.652344 209.511719 252.703125 228.253906 275.398438 229.363281 L 275.398438 229.40625 L 441.601562 229.40625 L 441.601562 229.242188 C 463.519531 227.308594 480.667969 208.9375 480.667969 186.582031 Z M 480.667969 186.582031 " fill-opacity="0.4196" fill-rule="nonzero"/><path fill="rgb(100%, 100%, 100%)" d="M 357.679688 241.984375 C 357.679688 221.230469 342.917969 203.925781 323.34375 199.976562 C 321.578125 176.550781 302.042969 158.097656 278.15625 158.097656 C 266.148438 158.097656 255.253906 162.742188 247.152344 170.34375 C 238.308594 163.765625 227.371094 159.90625 215.488281 159.90625 C 190.574219 159.90625 169.683594 177.042969 163.929688 200.183594 C 160.882812 199.527344 157.757812 199.15625 154.511719 199.15625 C 130.828125 199.15625 111.664062 218.351562 111.664062 241.984375 C 111.664062 264.921875 129.714844 283.664062 152.414062 284.773438 L 152.414062 284.8125 L 318.617188 284.8125 L 318.617188 284.648438 C 340.53125 282.71875 357.679688 264.34375 357.679688 241.984375 Z M 357.679688 241.984375 " fill-opacity="1" fill-rule="nonzero"/><path fill="rgb(90.979004%, 89.7995%, 85.488892%)" d="M 796.761719 926.472656 C 804.695312 926.472656 804.695312 914.144531 796.761719 914.144531 C 788.824219 914.144531 788.785156 926.472656 796.761719 926.472656 Z M 796.761719 926.472656 " fill-opacity="1" fill-rule="nonzero"/><path fill="rgb(90.979004%, 89.7995%, 85.488892%)" d="M 848.695312 914.144531 C 847.789062 914.144531 846.886719 914.144531 845.941406 914.144531 C 842.730469 914.144531 839.609375 916.980469 839.773438 920.308594 C 839.9375 923.636719 842.488281 926.472656 845.941406 926.472656 C 846.84375 926.472656 847.75 926.472656 848.695312 926.472656 C 851.902344 926.472656 855.027344 923.636719 854.863281 920.308594 C 854.742188 916.980469 852.191406 914.144531 848.695312 914.144531 Z M 848.695312 914.144531 " fill-opacity="1" fill-rule="nonzero"/><path fill="rgb(90.979004%, 89.7995%, 85.488892%)" d="M 813.167969 867.699219 C 812.265625 867.699219 811.359375 867.699219 810.410156 867.699219 C 807.207031 867.699219 804.078125 870.53125 804.242188 873.863281 C 804.410156 877.195312 806.957031 880.03125 810.410156 880.03125 C 811.316406 880.03125 812.222656 880.03125 813.167969 880.03125 C 816.375 880.03125 819.5 877.195312 819.335938 873.863281 C 819.167969 870.496094 816.621094 867.699219 813.167969 867.699219 Z M 813.167969 867.699219 " fill-opacity="1" fill-rule="nonzero"/><path fill="rgb(90.979004%, 89.7995%, 85.488892%)" d="M 871.679688 869.507812 C 870.777344 870.410156 869.871094 871.316406 868.925781 872.261719 C 866.582031 874.605469 866.582031 878.628906 868.925781 880.976562 C 871.269531 883.316406 875.296875 883.316406 877.640625 880.976562 C 878.546875 880.070312 879.453125 879.164062 880.398438 878.21875 C 882.738281 875.878906 882.738281 871.847656 880.398438 869.507812 C 878.054688 867.125 874.066406 867.125 871.679688 869.507812 Z M 871.679688 869.507812 " fill-opacity="1" fill-rule="nonzero"/><path fill="rgb(90.979004%, 89.7995%, 85.488892%)" d="M 848.695312 832.144531 C 847.789062 832.144531 846.886719 832.144531 845.941406 832.144531 C 842.730469 832.144531 839.609375 834.980469 839.773438 838.308594 C 839.9375 841.640625 842.488281 844.472656 845.941406 844.472656 C 846.84375 844.472656 847.75 844.472656 848.695312 844.472656 C 851.902344 844.472656 855.027344 841.640625 854.863281 838.308594 C 854.742188 834.980469 852.191406 832.144531 848.695312 832.144531 Z M 848.695312 832.144531 " fill-opacity="1" fill-rule="nonzero"/><path fill="rgb(90.979004%, 89.7995%, 85.488892%)" d="M 906.136719 839.011719 C 914.074219 839.011719 914.074219 826.679688 906.136719 826.679688 C 898.203125 826.679688 898.203125 839.011719 906.136719 839.011719 Z M 906.136719 839.011719 " fill-opacity="1" fill-rule="nonzero"/><path fill="rgb(90.979004%, 89.7995%, 85.488892%)" d="M 864.402344 794.582031 C 864.402344 795.484375 864.402344 796.386719 864.402344 797.332031 C 864.402344 800.539062 867.238281 803.660156 870.570312 803.496094 C 873.902344 803.332031 876.738281 800.785156 876.738281 797.332031 C 876.738281 796.429688 876.738281 795.527344 876.738281 794.582031 C 876.738281 791.375 873.902344 788.246094 870.570312 788.414062 C 867.238281 788.578125 864.402344 791.125 864.402344 794.582031 Z M 864.402344 794.582031 " fill-opacity="1" fill-rule="nonzero"/><path fill="rgb(90.979004%, 89.7995%, 85.488892%)" d="M 944.417969 799.347656 C 943.515625 799.347656 942.613281 799.347656 941.667969 799.347656 C 938.457031 799.347656 935.332031 802.183594 935.496094 805.511719 C 935.660156 808.84375 938.210938 811.675781 941.667969 811.675781 C 942.570312 811.675781 943.472656 811.675781 944.417969 811.675781 C 947.628906 811.675781 950.75 808.84375 950.585938 805.511719 C 950.464844 802.183594 947.875 799.347656 944.417969 799.347656 Z M 944.417969 799.347656 " fill-opacity="1" fill-rule="nonzero"/><path fill="rgb(90.979004%, 89.7995%, 85.488892%)" d="M 979.988281 700.949219 C 979.082031 700.949219 978.179688 700.949219 977.234375 700.949219 C 974.027344 700.949219 970.902344 703.785156 971.066406 707.113281 C 971.230469 710.445312 973.78125 713.277344 977.234375 713.277344 C 978.136719 713.277344 979.039062 713.277344 979.988281 713.277344 C 983.195312 713.277344 986.320312 710.445312 986.15625 707.113281 C 985.992188 703.742188 983.441406 700.949219 979.988281 700.949219 Z M 979.988281 700.949219 " fill-opacity="1" fill-rule="nonzero"/><path fill="rgb(90.979004%, 89.7995%, 85.488892%)" d="M 914.28125 750.640625 C 910.167969 750.640625 907.207031 753.929688 907.167969 757.957031 C 907.082031 761.78125 910.414062 765.480469 914.359375 765.191406 C 917.570312 764.988281 920.695312 762.519531 920.53125 759.023438 C 920.40625 755.859375 917.816406 752.617188 914.359375 752.859375 C 914.730469 752.902344 915.101562 752.945312 915.433594 753.023438 C 916.335938 753.558594 917.238281 754.09375 918.144531 754.628906 C 920.242188 757.300781 919.871094 759.808594 917.074219 762.152344 C 916.046875 762.4375 915.019531 762.726562 913.949219 762.972656 C 914.03125 762.972656 914.15625 762.972656 914.238281 762.972656 C 917.445312 762.972656 920.570312 760.132812 920.40625 756.804688 C 920.28125 753.4375 917.734375 750.597656 914.28125 750.640625 Z M 914.28125 750.640625 " fill-opacity="1" fill-rule="nonzero"/><path fill="rgb(90.979004%, 89.7995%, 85.488892%)" d="M 974.519531 757.011719 C 982.457031 757.011719 982.457031 744.683594 974.519531 744.683594 C 966.582031 744.683594 966.542969 757.011719 974.519531 757.011719 Z M 974.519531 757.011719 " fill-opacity="1" fill-rule="nonzero"/><path fill="rgb(90.979004%, 89.7995%, 85.488892%)" d="M 96.664062 808.921875 C 104.601562 808.921875 104.601562 796.59375 96.664062 796.59375 C 88.730469 796.59375 88.691406 808.921875 96.664062 808.921875 Z M 96.664062 808.921875 " fill-opacity="1" fill-rule="nonzero"/><path fill="rgb(90.979004%, 89.7995%, 85.488892%)" d="M 129.480469 855.410156 C 137.414062 855.410156 137.414062 843.078125 129.480469 843.078125 C 121.542969 843.078125 121.5 855.410156 129.480469 855.410156 Z M 129.480469 855.410156 " fill-opacity="1" fill-rule="nonzero"/><path fill="rgb(90.979004%, 89.7995%, 85.488892%)" d="M 170.476562 899.140625 C 178.410156 899.140625 178.410156 886.808594 170.476562 886.808594 C 162.539062 886.808594 162.539062 899.140625 170.476562 899.140625 Z M 170.476562 899.140625 " fill-opacity="1" fill-rule="nonzero"/><path fill="rgb(90.979004%, 89.7995%, 85.488892%)" d="M 154.066406 844.472656 C 162.003906 844.472656 162.003906 832.144531 154.066406 832.144531 C 146.132812 832.144531 146.132812 844.472656 154.066406 844.472656 Z M 154.066406 844.472656 " fill-opacity="1" fill-rule="nonzero"/><path fill="rgb(90.979004%, 89.7995%, 85.488892%)" d="M 206.042969 922.363281 C 205.140625 922.363281 204.234375 922.363281 203.289062 922.363281 C 200.082031 922.363281 196.953125 925.199219 197.121094 928.527344 C 197.285156 931.855469 199.832031 934.695312 203.289062 934.695312 C 204.195312 934.695312 205.097656 934.695312 206.042969 934.695312 C 209.25 934.695312 212.375 931.855469 212.210938 928.527344 C 212.046875 925.199219 209.496094 922.363281 206.042969 922.363281 Z M 206.042969 922.363281 " fill-opacity="1" fill-rule="nonzero"/><path fill="rgb(90.979004%, 89.7995%, 85.488892%)" d="M 268.953125 931.941406 C 276.890625 931.941406 276.890625 919.609375 268.953125 919.609375 C 261.019531 919.609375 260.980469 931.941406 268.953125 931.941406 Z M 268.953125 931.941406 " fill-opacity="1" fill-rule="nonzero"/><path fill="rgb(90.979004%, 89.7995%, 85.488892%)" d="M 307.238281 989.355469 C 315.175781 989.355469 315.175781 977.027344 307.238281 977.027344 C 299.300781 977.027344 299.261719 989.355469 307.238281 989.355469 Z M 307.238281 989.355469 " fill-opacity="1" fill-rule="nonzero"/><path fill="rgb(90.979004%, 89.7995%, 85.488892%)" d="M 326.359375 956.558594 C 334.292969 956.558594 334.292969 944.230469 326.359375 944.230469 C 318.421875 944.230469 318.421875 956.558594 326.359375 956.558594 Z M 326.359375 956.558594 " fill-opacity="1" fill-rule="nonzero"/><path fill="rgb(90.979004%, 89.7995%, 85.488892%)" d="M 352.097656 992.484375 C 351.195312 993.386719 350.289062 994.289062 349.34375 995.238281 C 347 997.578125 347 1001.605469 349.34375 1003.949219 C 351.6875 1006.292969 355.714844 1006.292969 358.0625 1003.949219 C 358.964844 1003.042969 359.867188 1002.140625 360.816406 1001.195312 C 363.160156 998.855469 363.160156 994.824219 360.816406 992.484375 C 358.472656 990.140625 354.441406 990.140625 352.097656 992.484375 Z M 352.097656 992.484375 " fill-opacity="1" fill-rule="nonzero"/><g fill="rgb(39.219666%, 55.288696%, 89.7995%)" fill-opacity="1"><g transform="translate(236.191017, 539.803413)"><g><path d="M 14.78125 0 L 14.78125 -141.765625 L 77.46875 -141.765625 C 83.988281 -141.765625 90.007812 -140.398438 95.53125 -137.671875 C 101.0625 -134.941406 105.820312 -131.347656 109.8125 -126.890625 C 113.8125 -122.429688 116.941406 -117.375 119.203125 -111.71875 C 121.460938 -106.0625 122.59375 -100.367188 122.59375 -94.640625 C 122.59375 -85.453125 120.296875 -77.097656 115.703125 -69.578125 C 111.117188 -62.054688 104.898438 -56.632812 97.046875 -53.3125 L 129.390625 0 L 98.4375 0 L 69.484375 -47.515625 L 42.328125 -47.515625 L 42.328125 0 Z M 42.328125 -71.6875 L 76.875 -71.6875 C 79.40625 -71.6875 81.765625 -72.285156 83.953125 -73.484375 C 86.148438 -74.679688 88.046875 -76.3125 89.640625 -78.375 C 91.242188 -80.4375 92.507812 -82.863281 93.4375 -85.65625 C 94.375 -88.457031 94.84375 -91.453125 94.84375 -94.640625 C 94.84375 -97.972656 94.3125 -101.035156 93.25 -103.828125 C 92.1875 -106.617188 90.753906 -109.046875 88.953125 -111.109375 C 87.160156 -113.179688 85.097656 -114.78125 82.765625 -115.90625 C 80.429688 -117.039062 78.066406 -117.609375 75.671875 -117.609375 L 42.328125 -117.609375 Z M 42.328125 -71.6875 "/></g></g></g><g fill="rgb(39.219666%, 55.288696%, 89.7995%)" fill-opacity="1"><g transform="translate(368.965919, 539.803413)"><g><path d="M 14.78125 0 L 14.78125 -141.765625 L 42.328125 -141.765625 L 42.328125 0 Z M 14.78125 0 "/></g></g></g><g fill="rgb(39.219666%, 55.288696%, 89.7995%)" fill-opacity="1"><g transform="translate(426.069109, 539.803413)"><g><path d="M 29.359375 -141.765625 L 67.6875 -34.546875 L 105.625 -141.765625 L 134.578125 -141.765625 L 79.265625 0 L 56.109375 0 L 0.40625 -141.765625 Z M 29.359375 -141.765625 "/></g></g></g><g fill="rgb(39.219666%, 55.288696%, 89.7995%)" fill-opacity="1"><g transform="translate(561.040305, 539.803413)"><g><path d="M 113.21875 -24.15625 L 113.21875 0 L 14.78125 0 L 14.78125 -141.765625 L 111.421875 -141.765625 L 111.421875 -117.609375 L 42.328125 -117.609375 L 42.328125 -83.46875 L 102.03125 -83.46875 L 102.03125 -61.09375 L 42.328125 -61.09375 L 42.328125 -24.15625 Z M 113.21875 -24.15625 "/></g></g></g><g fill="rgb(39.219666%, 55.288696%, 89.7995%)" fill-opacity="1"><g transform="translate(681.036872, 539.803413)"><g><path d="M 14.78125 0 L 14.78125 -141.765625 L 77.46875 -141.765625 C 83.988281 -141.765625 90.007812 -140.398438 95.53125 -137.671875 C 101.0625 -134.941406 105.820312 -131.347656 109.8125 -126.890625 C 113.8125 -122.429688 116.941406 -117.375 119.203125 -111.71875 C 121.460938 -106.0625 122.59375 -100.367188 122.59375 -94.640625 C 122.59375 -85.453125 120.296875 -77.097656 115.703125 -69.578125 C 111.117188 -62.054688 104.898438 -56.632812 97.046875 -53.3125 L 129.390625 0 L 98.4375 0 L 69.484375 -47.515625 L 42.328125 -47.515625 L 42.328125 0 Z M 42.328125 -71.6875 L 76.875 -71.6875 C 79.40625 -71.6875 81.765625 -72.285156 83.953125 -73.484375 C 86.148438 -74.679688 88.046875 -76.3125 89.640625 -78.375 C 91.242188 -80.4375 92.507812 -82.863281 93.4375 -85.65625 C 94.375 -88.457031 94.84375 -91.453125 94.84375 -94.640625 C 94.84375 -97.972656 94.3125 -101.035156 93.25 -103.828125 C 92.1875 -106.617188 90.753906 -109.046875 88.953125 -111.109375 C 87.160156 -113.179688 85.097656 -114.78125 82.765625 -115.90625 C 80.429688 -117.039062 78.066406 -117.609375 75.671875 -117.609375 L 42.328125 -117.609375 Z M 42.328125 -71.6875 "/></g></g></g><g fill="rgb(95.689392%, 96.859741%, 96.078491%)" fill-opacity="1"><g transform="translate(169.106991, 764.111225)"><g><path d="M 133.984375 -141.765625 L 133.984375 0 L 106.625 0 L 106.625 -60.5 L 42.328125 -60.5 L 42.328125 0 L 14.78125 0 L 14.78125 -141.765625 L 42.328125 -141.765625 L 42.328125 -84.46875 L 106.625 -84.46875 L 106.625 -141.765625 Z M 133.984375 -141.765625 "/></g></g></g><g fill="rgb(95.689392%, 96.859741%, 96.078491%)" fill-opacity="1"><g transform="translate(325.043125, 764.111225)"><g><path d="M 55.109375 -141.765625 L 79.46875 -141.765625 L 133.375 0 L 105.03125 0 L 91.84375 -35.34375 L 42.328125 -35.34375 L 29.359375 0 L 1 0 Z M 86.859375 -54.703125 L 67.296875 -110.421875 L 46.921875 -54.703125 Z M 86.859375 -54.703125 "/></g></g></g><g fill="rgb(95.689392%, 96.859741%, 96.078491%)" fill-opacity="1"><g transform="translate(466.403956, 764.111225)"><g><path d="M 6.1875 -71.875 C 6.1875 -80.53125 7.75 -89.082031 10.875 -97.53125 C 14.007812 -105.988281 18.570312 -113.546875 24.5625 -120.203125 C 30.550781 -126.859375 37.867188 -132.25 46.515625 -136.375 C 55.171875 -140.5 65.023438 -142.5625 76.078125 -142.5625 C 89.117188 -142.5625 100.398438 -139.695312 109.921875 -133.96875 C 119.441406 -128.25 126.53125 -120.796875 131.1875 -111.609375 L 110.015625 -97.046875 C 108.148438 -101.035156 105.882812 -104.394531 103.21875 -107.125 C 100.5625 -109.851562 97.703125 -112.015625 94.640625 -113.609375 C 91.578125 -115.210938 88.378906 -116.378906 85.046875 -117.109375 C 81.722656 -117.835938 78.46875 -118.203125 75.28125 -118.203125 C 68.351562 -118.203125 62.328125 -116.800781 57.203125 -114 C 52.078125 -111.207031 47.816406 -107.582031 44.421875 -103.125 C 41.023438 -98.664062 38.460938 -93.609375 36.734375 -87.953125 C 35.003906 -82.296875 34.140625 -76.671875 34.140625 -71.078125 C 34.140625 -64.828125 35.140625 -58.804688 37.140625 -53.015625 C 39.140625 -47.222656 41.96875 -42.128906 45.625 -37.734375 C 49.28125 -33.347656 53.671875 -29.820312 58.796875 -27.15625 C 63.921875 -24.488281 69.546875 -23.15625 75.671875 -23.15625 C 78.867188 -23.15625 82.195312 -23.554688 85.65625 -24.359375 C 89.113281 -25.160156 92.40625 -26.425781 95.53125 -28.15625 C 98.664062 -29.882812 101.5625 -32.113281 104.21875 -34.84375 C 106.882812 -37.570312 109.019531 -40.863281 110.625 -44.71875 L 133.1875 -31.75 C 130.914062 -26.425781 127.679688 -21.734375 123.484375 -17.671875 C 119.296875 -13.609375 114.570312 -10.175781 109.3125 -7.375 C 104.0625 -4.582031 98.441406 -2.453125 92.453125 -0.984375 C 86.460938 0.472656 80.601562 1.203125 74.875 1.203125 C 64.757812 1.203125 55.507812 -0.925781 47.125 -5.1875 C 38.738281 -9.445312 31.515625 -15.003906 25.453125 -21.859375 C 19.398438 -28.710938 14.675781 -36.5 11.28125 -45.21875 C 7.882812 -53.9375 6.1875 -62.820312 6.1875 -71.875 Z M 6.1875 -71.875 "/></g></g></g><g fill="rgb(95.689392%, 96.859741%, 96.078491%)" fill-opacity="1"><g transform="translate(610.56006, 764.111225)"><g><path d="M 14.78125 0 L 14.78125 -141.5625 L 42.328125 -141.5625 L 42.328125 -74.28125 L 101.828125 -141.765625 L 132.1875 -141.765625 L 77.875 -78.875 L 135.578125 0 L 104.625 0 L 60.5 -61.296875 L 42.328125 -42.328125 L 42.328125 0 Z M 14.78125 0 "/></g></g></g><g fill="rgb(95.689392%, 96.859741%, 96.078491%)" fill-opacity="1"><g transform="translate(751.321926, 764.111225)"><g><path d="M 99.234375 -104.625 C 98.304688 -105.5625 96.609375 -106.828125 94.140625 -108.421875 C 91.679688 -110.015625 88.6875 -111.578125 85.15625 -113.109375 C 81.632812 -114.640625 77.804688 -115.9375 73.671875 -117 C 69.546875 -118.070312 65.351562 -118.609375 61.09375 -118.609375 C 53.507812 -118.609375 47.851562 -117.207031 44.125 -114.40625 C 40.394531 -111.613281 38.53125 -107.6875 38.53125 -102.625 C 38.53125 -99.695312 39.226562 -97.269531 40.625 -95.34375 C 42.03125 -93.414062 44.0625 -91.71875 46.71875 -90.25 C 49.382812 -88.789062 52.742188 -87.460938 56.796875 -86.265625 C 60.859375 -85.066406 65.554688 -83.800781 70.890625 -82.46875 C 77.804688 -80.601562 84.09375 -78.601562 89.75 -76.46875 C 95.40625 -74.34375 100.195312 -71.679688 104.125 -68.484375 C 108.050781 -65.296875 111.078125 -61.46875 113.203125 -57 C 115.335938 -52.539062 116.40625 -47.050781 116.40625 -40.53125 C 116.40625 -32.945312 114.972656 -26.457031 112.109375 -21.0625 C 109.253906 -15.675781 105.394531 -11.316406 100.53125 -7.984375 C 95.675781 -4.660156 90.085938 -2.234375 83.765625 -0.703125 C 77.441406 0.828125 70.816406 1.59375 63.890625 1.59375 C 53.242188 1.59375 42.726562 0 32.34375 -3.1875 C 21.957031 -6.382812 12.640625 -10.910156 4.390625 -16.765625 L 16.578125 -40.53125 C 17.773438 -39.332031 19.9375 -37.769531 23.0625 -35.84375 C 26.1875 -33.914062 29.878906 -31.984375 34.140625 -30.046875 C 38.398438 -28.117188 43.125 -26.488281 48.3125 -25.15625 C 53.507812 -23.820312 58.835938 -23.15625 64.296875 -23.15625 C 79.472656 -23.15625 87.0625 -28.015625 87.0625 -37.734375 C 87.0625 -40.796875 86.191406 -43.390625 84.453125 -45.515625 C 82.722656 -47.648438 80.257812 -49.515625 77.0625 -51.109375 C 73.875 -52.710938 70.015625 -54.175781 65.484375 -55.5 C 60.960938 -56.832031 55.90625 -58.300781 50.3125 -59.90625 C 43.53125 -61.769531 37.640625 -63.796875 32.640625 -65.984375 C 27.648438 -68.179688 23.488281 -70.773438 20.15625 -73.765625 C 16.832031 -76.765625 14.335938 -80.226562 12.671875 -84.15625 C 11.015625 -88.082031 10.1875 -92.773438 10.1875 -98.234375 C 10.1875 -105.421875 11.515625 -111.8125 14.171875 -117.40625 C 16.835938 -123 20.53125 -127.65625 25.25 -131.375 C 29.976562 -135.101562 35.46875 -137.929688 41.71875 -139.859375 C 47.976562 -141.796875 54.703125 -142.765625 61.890625 -142.765625 C 71.878906 -142.765625 81.066406 -141.195312 89.453125 -138.0625 C 97.835938 -134.9375 105.160156 -131.242188 111.421875 -126.984375 Z M 99.234375 -104.625 "/></g></g></g></svg>